<svg width="16" height="17" viewBox="0 0 16 17" fill="none" xmlns="http://www.w3.org/2000/svg">
<g clip-path="url(#clip0_24_2533)">
<path d="M7.95 9.87089C7.24315 9.87089 6.53629 10.1619 6.07892 10.7025C5.66312 11.2014 4.91469 10.5362 5.33048 10.0372C5.99576 9.28877 6.95209 8.87298 7.95 8.87298C8.94791 8.87298 9.90424 9.28877 10.5695 10.0372C10.9853 10.5362 10.2369 11.2014 9.82108 10.7025C9.36371 10.1619 8.65685 9.87089 7.95 9.87089ZM7.95 13.3636C7.40946 13.3636 6.95209 12.9062 6.95209 12.3657C6.95209 11.8251 7.40946 11.3678 7.95 11.3678C8.49053 11.3678 8.94791 11.8251 8.94791 12.3657C8.94791 12.9062 8.49053 13.3636 7.95 13.3636ZM7.95 7.37611C6.61945 7.37611 5.41364 7.83349 4.45731 8.78982C4.04151 9.20562 3.2515 8.58192 3.75046 8.08297C4.87311 6.96032 6.36997 6.3782 7.95 6.3782C9.53003 6.3782 11.0269 6.96032 12.1495 8.08297C12.6485 8.58192 11.8585 9.20562 11.4427 8.78982C10.4864 7.83349 9.28055 7.37611 7.95 7.37611ZM7.95 4.88133C6.03734 4.88133 4.24941 5.58819 2.87728 6.87716C2.37833 7.33453 1.67147 6.62768 2.17043 6.1703C3.79204 4.67344 5.78786 3.88342 7.95 3.88342C10.1121 3.88342 12.108 4.67344 13.7296 6.1703C14.2285 6.62768 13.5217 7.33453 13.0227 6.87716C11.6506 5.58819 9.86266 4.88133 7.95 4.88133Z" fill="#BEAD8E"/>
</g>
<defs>
<clipPath id="clip0_24_2533">
<rect width="16" height="16" fill="white" transform="translate(0 0.550049)"/>
</clipPath>
</defs>
</svg>
